<svg xmlns="http://www.w3.org/2000/svg" viewBox="0 0 159.02 158.4"><defs><style>.cls-1{fill:#fff;}</style></defs><g id="Capa_2" data-name="Capa 2"><g id="Capa_1-2" data-name="Capa 1"><g id="lmS0h2.tif"><path class="cls-1" d="M1.33,158.37c-1,.13-1.52-.11-1.26-1.35,2.05-10,4-20,6.05-30,1-5.2,2.18-10.39,3.11-15.61a8.35,8.35,0,0,1,2.65-4.61q35.53-35.49,71-71c2.11-2.11,4.36-4.12,6.29-6.39,1.53-1.81,2.45-1.38,3.89.08,9.59,9.68,19.26,19.28,28.9,28.91,2.29,2.29,4.45,4.73,6.91,6.82,2,1.73,1.6,2.79-.08,4.45C117.36,81,106,92.42,94.6,103.83Q73.3,125.16,52,146.54a10.55,10.55,0,0,1-5.76,3.08c-14.5,2.8-29,5.69-43.47,8.54C2.32,158.26,1.83,158.3,1.33,158.37Z"/><path class="cls-1" d="M159,38.87a3.59,3.59,0,0,1-1.18,1.81c-6.19,6.14-12.4,12.26-18.54,18.45-1.14,1.15-1.82.92-2.83-.09q-18.47-18.51-37-37c-1.21-1.2-1.06-1.9.07-3q9.08-8.89,18-17.93c1.36-1.38,2.3-1.62,3.83-.09q18.17,18.31,36.46,36.49C158.29,38,158.69,38.49,159,38.87Z"/></g></g></g></svg>