<svg xmlns="http://www.w3.org/2000/svg" viewBox="0 0 129.71 129.69"><defs><style>.cls-1{fill:#fff;}</style></defs><g id="Capa_2" data-name="Capa 2"><g id="Capa_1-2" data-name="Capa 1"><g id="tIDRd2.tif"><path class="cls-1" d="M55.09,129.62V78.45c0-3.59,0-3.58-3.7-3.58-16.14,0-32.28,0-48.42,0-2.27,0-3.05-.6-3-2.93.17-4.82.14-9.65,0-14.47C0,55.49.67,55,2.6,55c16.39.07,32.78.05,49.17,0,3.31,0,3.32,0,3.32-3.26,0-16.22.07-32.43-.06-48.65C55,.52,55.82-.09,58.27,0c4.65.18,9.32.14,14,0,2.1-.06,2.68.7,2.67,2.73-.07,16.47,0,32.93-.09,49.4,0,2.31.66,3,2.94,3,16.39-.09,32.78-.05,49.17-.05h2.74c0,5.24,0,10.28,0,15.32s.84,4.48-4.49,4.49c-15.89,0-31.79,0-47.68,0-2,0-2.68.5-2.67,2.62.08,16.38,0,32.76.09,49.14,0,2.35-.56,3.19-3,3.1C66.42,129.49,60.94,129.62,55.09,129.62Z"/></g></g></g></svg>