<svg xmlns="http://www.w3.org/2000/svg" viewBox="0 0 139.76 159.74"><defs><style>.cls-1{fill:#fff;}</style></defs><g id="Capa_2" data-name="Capa 2"><g id="Capa_1-2" data-name="Capa 1"><g id="mSLdFD.tif"><path class="cls-1" d="M122.23,159.69h-3.84q-49.31,0-98.59.05c-1.76,0-2.25-.48-2.35-2.19q-1.35-22.91-2.84-45.8-2.2-34.47-4.49-68.93c-.13-2,.39-2.6,2.41-2.59q57.42.08,114.82,0c1.74,0,2.31.38,2.19,2.25-1,14.76-1.78,29.53-2.72,44.3-1.08,17.25-2.26,34.49-3.37,51.74C123,145.48,122.65,152.44,122.23,159.69Z"/><path class="cls-1" d="M69.75,30.16H3.36c-3.31,0-3.31,0-3.31-3.24,0-4.65.11-9.31,0-14-.07-2.17.77-2.67,2.75-2.66,11.48.07,23,0,34.45.09,2.17,0,3.6-.63,4.12-2.66C43,1.32,47-.25,53.4,0,66.27.6,79.19.24,92.08.16a3.6,3.6,0,0,1,3.85,2.35c1.17,2.56,2,6,4.09,7.21s5.61.57,8.5.58c9.07,0,18.14,0,27.21,0,4,0,4,0,4,3.9v12c0,4,0,4-3.86,4Z"/></g></g></g></svg>