<svg xmlns="http://www.w3.org/2000/svg" viewBox="0 0 159.4 139.47"><defs><style>.cls-1{fill:#fff;}</style></defs><g id="Capa_2" data-name="Capa 2"><g id="Capa_1-2" data-name="Capa 1"><g id="kxWfNJ.tif"><path d="M79.84,0c19.45,0,38.89,0,58.34,0,8.62,0,15.38,3.53,19.08,11.51a23,23,0,0,1,2,9.36q.21,48.84.07,97.69c0,12.32-8.6,20.84-20.91,20.85q-58.71.07-117.43,0C8.6,139.42.11,131,.07,118.37q-.15-48.6,0-97.19C.1,8.46,8.77,0,21.5,0ZM19.89,119.54H139.44V49.94H19.89ZM138.57,22.78c-.21-2.26-1.27-3-3-3-7.23,0-14.46,0-21.68.07-1,0-2.49.71-2.75,1.44a3.81,3.81,0,0,0,.76,3.24c3.33,3.58,6.84,7,10.34,10.43,1.86,1.81,3,1.8,4.9,0q5.07-5,10-10A12.9,12.9,0,0,0,138.57,22.78Z"/><path class="cls-1" d="M19.89,119.54V49.94H139.44v69.6ZM79.72,62.32H72.24c-10.55,0-21.1-.06-31.65,0-6.31,0-9.89,5.61-7.14,10.94,1.63,3.15,4.58,3.86,7.8,3.86h77a12.84,12.84,0,0,0,2.24-.13c5.3-1,8-6.1,5.59-10.68-1.63-3.12-4.47-4-7.73-4Zm.08,44.73H91c9.3,0,18.61.06,27.91,0,6.3-.06,9.91-5.74,7.07-11-1.69-3.09-4.57-3.85-7.81-3.85H41.42a15.21,15.21,0,0,0-2.24.1c-4.67.74-7.38,4.51-6.44,8.92.78,3.69,3.68,5.78,8.18,5.79Q60.36,107.07,79.8,107.05Z"/><path class="cls-1" d="M47.49,22.78a12.9,12.9,0,0,1-1.44,2.13q-5,5.07-10,10c-1.88,1.84-3,1.85-4.9,0-3.5-3.43-7-6.85-10.34-10.43A3.81,3.81,0,0,1,20,21.32c.26-.73,1.78-1.42,2.75-1.44,7.22-.12,14.45-.05,21.67-.07C46.22,19.8,47.27,20.52,47.49,22.78Z"/><path d="M79.72,62.32h38.63c3.26,0,6.1.88,7.73,4,2.39,4.58-.29,9.7-5.59,10.68a12.84,12.84,0,0,1-2.24.13h-77c-3.22,0-6.17-.71-7.8-3.86-2.75-5.33.83-10.89,7.14-10.94,10.55-.08,21.1,0,31.65,0Z"/><path d="M79.8,107.05q-19.44,0-38.88,0c-4.5,0-7.4-2.1-8.18-5.79-.94-4.41,1.77-8.18,6.44-8.92a15.21,15.21,0,0,1,2.24-.1h76.76c3.24,0,6.12.76,7.81,3.85,2.84,5.21-.77,10.89-7.07,11-9.3.08-18.61,0-27.91,0Z"/></g><rect x="104.74" y="16.19" width="37.45" height="26.19"/></g></g></svg>