<svg xmlns="http://www.w3.org/2000/svg" viewBox="0 0 159.37 159.39"><g id="Capa_2" data-name="Capa 2"><g id="Capa_1-2" data-name="Capa 1"><g id="yS1YZp.tif"><path d="M117.06,103c3.32,3.35,6.5,6.62,9.74,9.84q14.49,14.43,29,28.81a10.42,10.42,0,0,1,3.5,8.45c-.28,3.6-1.83,6.58-5.24,8.2a10,10,0,0,1-10.41-.7,16.73,16.73,0,0,1-2.61-2.3Q123,137,104.9,118.77a13.86,13.86,0,0,1-1.42-2.08c-17.18,11.82-35.37,15.35-55,10.55-16-3.9-28.33-13.16-37.61-26.56C-6.78,75.22-2.41,38.81,20.21,17.54a65.15,65.15,0,0,1,84.93-3.45A65.31,65.31,0,0,1,117.06,103ZM64.61,19.65a45,45,0,1,0,45,45A45,45,0,0,0,64.61,19.65Z"/></g></g></g></svg>