<svg xmlns="http://www.w3.org/2000/svg" viewBox="0 0 98.95 98.65"><defs><style>.cls-1{fill:#fff;}</style></defs><g id="Capa_2" data-name="Capa 2"><g id="Capa_1-2" data-name="Capa 1"><g id="TECp3d.tif"><path class="cls-1" d="M43.3,50l-32.09-32C8.5,15.35,5.81,12.65,3.1,10,.57,7.45-1.61,4.53,1.62,1.45s6.06-.68,8.54,1.8Q27.61,20.65,45,38.06c1.29,1.28,2.42,2.72,4,4.52,1.74-1.58,3.07-2.71,4.31-3.93Q70.52,21.7,87.68,4.7c.83-.81,1.64-1.64,2.48-2.45C92.45,0,95.07-1,97.55,1.58s1.4,5.22-.8,7.47c-4,4-8,8-12,12L56.49,49.14c1.37,1.5,2.5,2.82,3.73,4.06Q77.4,70.51,94.61,87.79c.82.83,1.66,1.63,2.44,2.48,2,2.24,2.73,4.76.35,7s-4.9,1.43-7-.66c-4.28-4.17-8.55-8.34-12.74-12.6C68.56,74.8,59.55,65.52,50.16,55.9c-2,1.83-3.31,3-4.56,4.22Q28.32,77.33,11.05,94.55c-1.17,1.16-2.33,2.83-3.74,3.14-1.85.41-4.67.4-5.73-.71s-.78-3.86-.33-5.71C1.55,90,3.12,89,4.19,88,17,75.51,29.89,63,43.3,50Z"/></g></g></g></svg>