<svg xmlns="http://www.w3.org/2000/svg" viewBox="0 0 159.4 158.63"><defs><style>.cls-1{fill:#fff;}</style></defs><g id="Capa_2" data-name="Capa 2"><g id="Capa_1-2" data-name="Capa 1"><path class="cls-1" d="M80.2,0C35.52-.11,1.16,34.38,0,78.58c-.91,43.15,34.94,79.93,79.2,80.05,44.64.11,79.12-34.35,80.16-78.58C160.39,36.9,124.44.11,80.2,0Zm33.39,113.27c-3.09,3-7.42,2.58-11.21-1.19-6.65-6.61-13.22-13.31-19.83-20-.84-.84-1.71-1.63-2.57-2.45C74.49,95,69.3,100,64.14,105c-2.24,2.19-4.4,4.45-6.62,6.65-4.2,4.17-8.53,4.7-11.72,1.49s-2.59-7.46,1.56-11.7C54.59,94.08,61.78,86.67,69.27,79c-.6-.62-1.46-1.57-2.37-2.47-6.75-6.68-13.54-13.33-20.27-20-2.36-2.35-4-5.32-2.2-8.4C45.55,46.16,48,43.93,50,43.83a11.07,11.07,0,0,1,7.21,3c6.67,6.24,13,12.88,19.39,19.38.93.94,1.76,2,2.9,3.27,1.23-1.14,2.18-2,3.07-2.87,6.7-6.74,13.37-13.51,20.09-20.22,2.35-2.35,5.3-4,8.41-2.28,1.93,1.09,4.19,3.49,4.32,5.44a10.79,10.79,0,0,1-2.93,7.2C106,63.58,99.15,70,92.48,76.62c-.84.83-1.62,1.71-2.5,2.64,3.75,3.82,7.33,7.52,11,11.16,3.82,3.83,7.73,7.57,11.54,11.42S116.78,110.21,113.59,113.27Z"/></g></g></svg>