<svg xmlns="http://www.w3.org/2000/svg" viewBox="0 0 159.39 158.66"><defs><style>.cls-1{fill:#fff;}</style></defs><g id="Capa_2" data-name="Capa 2"><g id="Capa_1-2" data-name="Capa 1"><path class="cls-1" d="M80,0C35.14.07.92,34.71,0,78.75c-.89,43.22,35.22,80,79.33,79.91,44.83-.06,79-34.69,80-78.75C160.11,36.68,124.11-.07,80,0Zm-.48,39.63a9.9,9.9,0,1,1-9.79,9.8A9.81,9.81,0,0,1,79.54,39.63Zm19.93,72.55c-.32,3.71-2.57,6.49-6.28,6.63-9,.33-17.93.38-26.88,0-4.17-.17-6.58-3.3-6.43-7.48s2.81-6.61,7-7.09c2.43-.28,5.95.67,7.11-.62,1.89-2.08.48-5.64.72-8.57,0-.33,0-.66,0-1,0-3,.93-6.5-.34-8.79s-5.15-.55-7.84-1.06c-4.16-.78-6.68-3.27-6.65-7.42s2.58-7,6.78-7.23a124.37,124.37,0,0,1,15.92,0c4.44.28,6.85,3.17,7,7.58.17,4.13,0,8.27,0,12.41h0c0,2.15,0,4.3,0,6.45-.07,4.21-1.25,8.65,5.57,9.22C98.39,105.45,99.75,109,99.47,112.18Z"/></g></g></svg>