<svg xmlns="http://www.w3.org/2000/svg" viewBox="0 0 159.4 158.63"><defs><style>.cls-1{fill:#fff;}</style></defs><g id="Capa_2" data-name="Capa 2"><g id="Capa_1-2" data-name="Capa 1"><path class="cls-1" d="M80.2,0C35.52-.11,1.16,34.38,0,78.58c-.91,43.15,34.94,79.93,79.2,80.05,44.64.11,79.12-34.35,80.16-78.58C160.39,36.9,124.44.11,80.2,0Zm35.92,62.67a18.49,18.49,0,0,1-3.4,4.21Q95,84.63,77.21,102.3C71.44,108,68,108,62.14,102.16S50.61,90.75,44.92,85a7.49,7.49,0,0,1-1.79-8.66c1.23-2.85,3.63-4.16,6.7-4.31a9.32,9.32,0,0,1,6.48,3.21c3.38,3.42,7,6.62,10.15,10.21,2.37,2.71,3.8,2.93,6.5.13,9.52-9.9,19.37-19.49,29.14-29.16a18.22,18.22,0,0,1,4.21-3.4,6.87,6.87,0,0,1,8.63,1.44A6.77,6.77,0,0,1,116.12,62.67Z"/></g></g></svg>