<svg xmlns="http://www.w3.org/2000/svg" viewBox="0 0 159.12 139.03"><defs><style>.cls-1{fill:#fff;}</style></defs><g id="Capa_2" data-name="Capa 2"><g id="Capa_1-2" data-name="Capa 1"><path class="cls-1" d="M156,117.61Q124,63.13,91.89,8.7C85.07-2.84,74.43-2.91,67.64,8.54Q35.28,63.13,3,117.75C-3.93,129.52,1.52,139,15.16,139q32.12,0,64.24,0t64.23,0C157.65,139,163.11,129.65,156,117.61Zm-84-69c.08-5.46,3-8.76,7.31-8.89,4.51-.14,7.58,3.27,7.75,9,.16,5.27,0,10.56,0,15.84s.13,10.57,0,15.84c-.17,5.47-3,8.76-7.32,8.9-4.51.14-7.66-3.27-7.74-9Q71.82,64.5,72,48.65Zm7.51,70.48a9.9,9.9,0,1,1,9.94-9.63A9.79,9.79,0,0,1,79.55,119.13Z"/></g></g></svg>